<svg width="17" height="12" viewBox="0 0 17 12" fill="none" xmlns="http://www.w3.org/2000/svg">
<path d="M1.00151 10.0253C0.81888 10.0253 0.636257 9.9428 0.51254 9.79552C0.324019 9.57165 0.30634 9.25941 0.471297 9.01198C0.701057 8.66439 0.871904 8.05759 0.948491 7.31528C0.983838 6.98537 0.895472 6.66135 0.712842 6.41391C0.24743 5.79533 0 5.10015 0 4.3932C0 2.04257 2.68642 0.133789 5.99144 0.133789C9.29646 0.133789 11.977 2.04257 11.977 4.3932C11.977 6.74383 9.79723 8.36393 6.14462 8.6585C5.62619 8.69974 5.19612 8.74098 4.74249 8.84702C4.33599 8.94128 3.92949 9.05322 3.52888 9.17104C2.61573 9.44204 1.8911 9.69537 1.26073 9.96637C1.17825 10.0017 1.08988 10.0194 1.00151 10.0194V10.0253ZM5.99144 1.25314C3.34625 1.25314 1.11345 2.6965 1.11345 4.39909C1.11345 4.87039 1.27841 5.32402 1.59654 5.75409C1.95002 6.22539 2.11498 6.8263 2.05018 7.439C2.00894 7.85139 1.94413 8.21665 1.85576 8.54657C2.26226 8.39928 2.70999 8.25789 3.21075 8.11061C3.62903 7.98689 4.0591 7.87496 4.48327 7.7748C5.01349 7.65109 5.50836 7.60396 6.05036 7.55683C7.1756 7.46846 10.8577 6.9677 10.8577 4.39909C10.8577 2.6965 8.62486 1.25314 5.98556 1.25314H5.99144Z" fill="#010101"/>
<path d="M16.0952 11.9935C16.0422 11.9935 15.9892 11.9876 15.9361 11.9758C15.2763 11.8226 14.5399 11.7048 13.5678 11.5987C13.1554 11.5575 12.7372 11.5222 12.3189 11.4986C11.8594 11.4691 11.4411 11.5104 10.905 11.5634C7.25237 11.9228 4.82515 10.7445 4.40098 8.40565L4.38918 8.32907C4.34205 8.02272 4.54238 7.73994 4.84872 7.68692C5.14918 7.63979 5.43785 7.84009 5.49087 8.14644L5.50265 8.21124C5.95628 10.7268 9.6678 10.5619 10.793 10.444C11.3645 10.3851 11.8417 10.3439 12.3778 10.3733C12.8138 10.3969 13.2497 10.4323 13.6857 10.4735C14.2159 10.5324 14.6754 10.5913 15.0996 10.662C14.9523 10.3557 14.8227 10.0022 14.7049 9.60748C14.534 9.00657 14.587 8.39387 14.8462 7.86955C15.0878 7.38646 15.1703 6.90926 15.0819 6.45563C14.8463 5.14777 13.2733 4.18159 11.2584 4.11679C10.9521 4.10501 10.7105 3.84579 10.7223 3.53944C10.7341 3.23309 10.9933 2.98566 11.2997 3.00333C13.886 3.0917 15.8478 4.39957 16.1836 6.25533C16.3132 6.94461 16.1954 7.68102 15.8478 8.37031C15.7123 8.64131 15.6887 8.983 15.7771 9.30113C15.9951 10.0317 16.2602 10.5795 16.5547 10.88C16.7609 11.1098 16.7904 11.422 16.6431 11.6694C16.5253 11.8638 16.3132 11.9817 16.0952 11.9817V11.9935Z" fill="#010101"/>
</svg>
