<svg width="15" height="16" viewBox="0 0 15 16" fill="none" xmlns="http://www.w3.org/2000/svg">
<path d="M7.15171 15.2722C3.20932 15.2722 0 12.0629 0 8.12046C0 4.17807 3.20932 0.96875 7.15171 0.96875C11.0941 0.96875 14.3034 4.17807 14.3034 8.12046C14.3034 12.0629 11.0941 15.2722 7.15171 15.2722ZM7.15171 2.05392C3.80963 2.05392 1.09094 4.77261 1.09094 8.11469C1.09094 11.4568 3.80963 14.1755 7.15171 14.1755C10.4938 14.1755 13.2125 11.4568 13.2125 8.11469C13.2125 4.77261 10.4938 2.05392 7.15171 2.05392Z" fill="#010101"/>
<path d="M8.79116 10.3944C8.64686 10.3944 8.50255 10.3367 8.39288 10.227L6.60352 8.33952V4.0508C6.60352 3.75064 6.84594 3.50244 7.15187 3.50244C7.45779 3.50244 7.70022 3.74487 7.70022 4.0508V7.9066L9.18944 9.47663C9.39724 9.69598 9.3857 10.0423 9.16636 10.2501C9.06246 10.3482 8.92392 10.4002 8.79116 10.4002V10.3944Z" fill="#010101"/>
</svg>
