<svg width="21" height="14" viewBox="0 0 21 14" fill="none" xmlns="http://www.w3.org/2000/svg">
<g id="Group">
<path id="Vector" d="M10.0724 6.9705C8.26808 6.9705 6.79395 5.50226 6.79395 3.69202C6.79395 1.88178 8.26808 0.419434 10.0724 0.419434C11.8768 0.419434 13.3509 1.88767 13.3509 3.69792C13.3509 5.50816 11.8827 6.9764 10.0724 6.9764V6.9705ZM10.0724 1.53388C8.88132 1.53388 7.91429 2.50092 7.91429 3.69202C7.91429 4.88312 8.88132 5.85016 10.0724 5.85016C11.2635 5.85016 12.2306 4.88312 12.2306 3.69202C12.2306 2.50092 11.2635 1.53388 10.0724 1.53388Z" fill="#010101"/>
<path id="Vector_2" d="M3.54479 6.05638C2.44803 6.05638 1.55176 5.16011 1.55176 4.06335C1.55176 2.96659 2.44803 2.07031 3.54479 2.07031C4.64155 2.07031 5.53783 2.96659 5.53783 4.06335C5.53783 5.16011 4.64155 6.05638 3.54479 6.05638ZM3.54479 3.18476C3.06127 3.18476 2.66621 3.57983 2.66621 4.06335C2.66621 4.54686 3.06127 4.94193 3.54479 4.94193C4.02831 4.94193 4.42338 4.54686 4.42338 4.06335C4.42338 3.57983 4.02831 3.18476 3.54479 3.18476Z" fill="#010101"/>
<path id="Vector_3" d="M16.5237 6.11572C15.3915 6.11572 14.4717 5.19586 14.4717 4.06372C14.4717 2.93158 15.3915 2.01172 16.5237 2.01172C17.6558 2.01172 18.5757 2.93158 18.5757 4.06372C18.5757 5.19586 17.6558 6.11572 16.5237 6.11572ZM16.5237 3.12617C16.0048 3.12617 15.5861 3.54482 15.5861 4.06372C15.5861 4.58261 16.0048 5.00127 16.5237 5.00127C17.0426 5.00127 17.4612 4.58261 17.4612 4.06372C17.4612 3.54482 17.0426 3.12617 16.5237 3.12617Z" fill="#010101"/>
<path id="Vector_4" d="M14.3064 13.9989H5.78003C5.28472 13.9989 4.88965 13.598 4.88965 13.1086V11.2924C4.88965 9.49987 6.3461 8.04932 8.13275 8.04932H11.9537C13.7463 8.04932 15.1968 9.50576 15.1968 11.2924V13.1086C15.1968 13.6039 14.7959 13.9989 14.3005 13.9989H14.3064ZM5.9982 12.8845H14.0824V11.2924C14.0824 10.119 13.1271 9.16376 11.9537 9.16376H8.13275C6.95934 9.16376 6.0041 10.119 6.0041 11.2924V12.8845H5.9982Z" fill="#010101"/>
<path id="Vector_5" d="M0.590934 11.8526C0.284313 11.8526 0.0307617 11.6049 0.0307617 11.2924C0.0307617 9.49987 1.48721 8.04932 3.27386 8.04932C3.83993 8.04932 4.39421 8.19673 4.88362 8.47387C5.14897 8.62718 5.24331 8.96918 5.09 9.23452C4.93669 9.49987 4.59469 9.59421 4.32935 9.4409C4.01093 9.25811 3.64535 9.16376 3.27386 9.16376C2.10045 9.16376 1.14521 10.119 1.14521 11.2924C1.14521 11.599 0.897555 11.8526 0.585037 11.8526H0.590934Z" fill="#010101"/>
<path id="Vector_6" d="M19.5073 11.8526C19.2007 11.8526 18.9471 11.6049 18.9471 11.2924C18.9471 10.119 17.9919 9.16376 16.8185 9.16376C16.447 9.16376 16.0873 9.25811 15.763 9.4409C15.4977 9.59421 15.1557 9.49987 15.0023 9.23452C14.849 8.96918 14.9434 8.62718 15.2087 8.47387C15.6981 8.19673 16.2524 8.04932 16.8126 8.04932C18.6051 8.04932 20.0557 9.50576 20.0557 11.2924C20.0557 11.599 19.808 11.8526 19.4955 11.8526H19.5073Z" fill="#010101"/>
</g>
</svg>
