<svg width="47" height="46" viewBox="0 0 47 46" fill="none" xmlns="http://www.w3.org/2000/svg">
<path d="M43.8131 30.8362H4.49838C0.434791 30.8362 0 28.679 0 27.7593V17.107C0 15.6354 1.20401 14.4314 2.6756 14.4314H44.2312C45.7028 14.4314 46.9068 15.6354 46.9068 17.107V27.7593C46.9068 29.4483 45.5188 30.8362 43.8298 30.8362H43.8131ZM2.6756 16.4381C2.3077 16.4381 2.0067 16.7391 2.0067 17.107V27.7593C2.0067 28.6958 3.56191 28.8295 4.49838 28.8295H43.8131C44.3984 28.8295 44.8834 28.3446 44.8834 27.7593V17.107C44.8834 16.7391 44.5824 16.4381 44.2145 16.4381H2.65888H2.6756Z" fill="black"/>
<path d="M44.8834 16.4383H2.0067C0.903014 16.4383 0 15.5353 0 14.4316V3.09366C0 2.50837 0.167224 1.92307 0.46823 1.43812C1.07024 0.535098 2.04015 0 3.07695 0H43.7964C45.5021 0 46.8901 1.38796 46.8901 3.09366V14.4316C46.8901 15.5353 45.9871 16.4383 44.8834 16.4383ZM3.07695 2.0067C2.70905 2.0067 2.37459 2.19065 2.1572 2.5251C2.05687 2.6756 2.0067 2.87627 2.0067 3.09366V14.4316H44.8834V3.09366C44.8834 2.49165 44.3984 2.0067 43.7964 2.0067H3.07695Z" fill="black"/>
<path d="M8.47838 12.2744C6.271 12.2744 4.48169 10.4851 4.48169 8.2777C4.48169 6.07032 6.271 4.28101 8.47838 4.28101C10.6858 4.28101 12.4918 6.07032 12.4918 8.2777C12.4918 10.4851 10.7025 12.2744 8.47838 12.2744ZM8.47838 6.271C7.37469 6.271 6.48839 7.17401 6.48839 8.2777C6.48839 9.38139 7.39142 10.2677 8.47838 10.2677C9.56535 10.2677 10.4684 9.36467 10.4684 8.2777C10.4684 7.19073 9.56535 6.271 8.47838 6.271Z" fill="black"/>
<path d="M8.47838 26.6389C6.271 26.6389 4.48169 24.8496 4.48169 22.6422C4.48169 20.4348 6.271 18.6455 8.47838 18.6455C10.6858 18.6455 12.4918 20.4348 12.4918 22.6422C12.4918 24.8496 10.7025 26.6389 8.47838 26.6389ZM8.47838 20.6355C7.37469 20.6355 6.48839 21.5385 6.48839 22.6255C6.48839 23.7125 7.39142 24.6322 8.47838 24.6322C9.56535 24.6322 10.4684 23.7292 10.4684 22.6255C10.4684 21.5218 9.56535 20.6355 8.47838 20.6355Z" fill="black"/>
<path d="M27.1073 7.89297C27.4951 7.89297 27.8096 7.57852 27.8096 7.19063C27.8096 6.80273 27.4951 6.48828 27.1073 6.48828C26.7194 6.48828 26.4049 6.80273 26.4049 7.19063C26.4049 7.57852 26.7194 7.89297 27.1073 7.89297Z" fill="black"/>
<path d="M30.1005 7.89297C30.4884 7.89297 30.8029 7.57852 30.8029 7.19063C30.8029 6.80273 30.4884 6.48828 30.1005 6.48828C29.7126 6.48828 29.3982 6.80273 29.3982 7.19063C29.3982 7.57852 29.7126 7.89297 30.1005 7.89297Z" fill="black"/>
<path d="M33.0941 7.89297C33.482 7.89297 33.7964 7.57852 33.7964 7.19063C33.7964 6.80273 33.482 6.48828 33.0941 6.48828C32.7062 6.48828 32.3917 6.80273 32.3917 7.19063C32.3917 7.57852 32.7062 7.89297 33.0941 7.89297Z" fill="black"/>
<path d="M36.0705 7.89297C36.4584 7.89297 36.7729 7.57852 36.7729 7.19063C36.7729 6.80273 36.4584 6.48828 36.0705 6.48828C35.6826 6.48828 35.3682 6.80273 35.3682 7.19063C35.3682 7.57852 35.6826 7.89297 36.0705 7.89297Z" fill="black"/>
<path d="M39.0639 7.89297C39.4518 7.89297 39.7663 7.57852 39.7663 7.19063C39.7663 6.80273 39.4518 6.48828 39.0639 6.48828C38.676 6.48828 38.3616 6.80273 38.3616 7.19063C38.3616 7.57852 38.676 7.89297 39.0639 7.89297Z" fill="black"/>
<path d="M28.5288 10.0334C28.9167 10.0334 29.2311 9.7189 29.2311 9.33101C29.2311 8.94311 28.9167 8.62866 28.5288 8.62866C28.1409 8.62866 27.8264 8.94311 27.8264 9.33101C27.8264 9.7189 28.1409 10.0334 28.5288 10.0334Z" fill="black"/>
<path d="M31.5053 10.0334C31.8932 10.0334 32.2077 9.7189 32.2077 9.33101C32.2077 8.94311 31.8932 8.62866 31.5053 8.62866C31.1174 8.62866 30.803 8.94311 30.803 9.33101C30.803 9.7189 31.1174 10.0334 31.5053 10.0334Z" fill="black"/>
<path d="M34.4986 10.0334C34.8865 10.0334 35.201 9.7189 35.201 9.33101C35.201 8.94311 34.8865 8.62866 34.4986 8.62866C34.1107 8.62866 33.7963 8.94311 33.7963 9.33101C33.7963 9.7189 34.1107 10.0334 34.4986 10.0334Z" fill="black"/>
<path d="M37.492 10.0334C37.8799 10.0334 38.1944 9.7189 38.1944 9.33101C38.1944 8.94311 37.8799 8.62866 37.492 8.62866C37.1041 8.62866 36.7897 8.94311 36.7897 9.33101C36.7897 9.7189 37.1041 10.0334 37.492 10.0334Z" fill="black"/>
<path d="M40.4686 10.0334C40.8565 10.0334 41.1709 9.7189 41.1709 9.33101C41.1709 8.94311 40.8565 8.62866 40.4686 8.62866C40.0807 8.62866 39.7662 8.94311 39.7662 9.33101C39.7662 9.7189 40.0807 10.0334 40.4686 10.0334Z" fill="black"/>
<path d="M27.4083 22.7763C27.7962 22.7763 28.1106 22.4618 28.1106 22.0739C28.1106 21.686 27.7962 21.3716 27.4083 21.3716C27.0204 21.3716 26.7059 21.686 26.7059 22.0739C26.7059 22.4618 27.0204 22.7763 27.4083 22.7763Z" fill="black"/>
<path d="M30.4014 22.7763C30.7893 22.7763 31.1038 22.4618 31.1038 22.0739C31.1038 21.686 30.7893 21.3716 30.4014 21.3716C30.0135 21.3716 29.6991 21.686 29.6991 22.0739C29.6991 22.4618 30.0135 22.7763 30.4014 22.7763Z" fill="black"/>
<path d="M33.395 22.7763C33.7829 22.7763 34.0973 22.4618 34.0973 22.0739C34.0973 21.686 33.7829 21.3716 33.395 21.3716C33.0071 21.3716 32.6926 21.686 32.6926 22.0739C32.6926 22.4618 33.0071 22.7763 33.395 22.7763Z" fill="black"/>
<path d="M36.3715 22.7763C36.7594 22.7763 37.0739 22.4618 37.0739 22.0739C37.0739 21.686 36.7594 21.3716 36.3715 21.3716C35.9836 21.3716 35.6692 21.686 35.6692 22.0739C35.6692 22.4618 35.9836 22.7763 36.3715 22.7763Z" fill="black"/>
<path d="M39.3649 22.7763C39.7528 22.7763 40.0673 22.4618 40.0673 22.0739C40.0673 21.686 39.7528 21.3716 39.3649 21.3716C38.977 21.3716 38.6626 21.686 38.6626 22.0739C38.6626 22.4618 38.977 22.7763 39.3649 22.7763Z" fill="black"/>
<path d="M28.8295 24.9167C29.2174 24.9167 29.5319 24.6022 29.5319 24.2143C29.5319 23.8264 29.2174 23.512 28.8295 23.512C28.4416 23.512 28.1272 23.8264 28.1272 24.2143C28.1272 24.6022 28.4416 24.9167 28.8295 24.9167Z" fill="black"/>
<path d="M31.8062 24.9167C32.1941 24.9167 32.5086 24.6022 32.5086 24.2143C32.5086 23.8264 32.1941 23.512 31.8062 23.512C31.4183 23.512 31.1039 23.8264 31.1039 24.2143C31.1039 24.6022 31.4183 24.9167 31.8062 24.9167Z" fill="black"/>
<path d="M34.7996 24.9167C35.1875 24.9167 35.502 24.6022 35.502 24.2143C35.502 23.8264 35.1875 23.512 34.7996 23.512C34.4117 23.512 34.0973 23.8264 34.0973 24.2143C34.0973 24.6022 34.4117 24.9167 34.7996 24.9167Z" fill="black"/>
<path d="M37.7929 24.9167C38.1808 24.9167 38.4953 24.6022 38.4953 24.2143C38.4953 23.8264 38.1808 23.512 37.7929 23.512C37.405 23.512 37.0906 23.8264 37.0906 24.2143C37.0906 24.6022 37.405 24.9167 37.7929 24.9167Z" fill="black"/>
<path d="M40.7696 24.9167C41.1575 24.9167 41.472 24.6022 41.472 24.2143C41.472 23.8264 41.1575 23.512 40.7696 23.512C40.3817 23.512 40.0673 23.8264 40.0673 24.2143C40.0673 24.6022 40.3817 24.9167 40.7696 24.9167Z" fill="black"/>
<path d="M23.445 45.2011C21.0035 45.2011 19.0135 43.2111 19.0135 40.7696C19.0135 38.3281 21.0035 36.3381 23.445 36.3381C25.8865 36.3381 27.8765 38.3281 27.8765 40.7696C27.8765 43.2111 25.8865 45.2011 23.445 45.2011ZM23.445 38.3448C22.1072 38.3448 21.0203 39.4318 21.0203 40.7696C21.0203 42.1074 22.1072 43.1944 23.445 43.1944C24.7828 43.1944 25.8698 42.1074 25.8698 40.7696C25.8698 39.4318 24.7828 38.3448 23.445 38.3448Z" fill="black"/>
<path d="M44.2981 41.7731H26.8732C26.3214 41.7731 25.8699 41.3215 25.8699 40.7697C25.8699 40.2179 26.3214 39.7664 26.8732 39.7664H44.2981C44.85 39.7664 45.3015 40.2179 45.3015 40.7697C45.3015 41.3215 44.85 41.7731 44.2981 41.7731Z" fill="black"/>
<path d="M20.0169 41.7731H2.57524C2.02339 41.7731 1.5719 41.3215 1.5719 40.7697C1.5719 40.2179 2.02339 39.7664 2.57524 39.7664H20.0169C20.5687 39.7664 21.0202 40.2179 21.0202 40.7697C21.0202 41.3215 20.5687 41.7731 20.0169 41.7731Z" fill="black"/>
<path d="M23.4451 38.3448C22.8933 38.3448 22.4418 37.8933 22.4418 37.3415V29.8163C22.4418 29.2645 22.8933 28.813 23.4451 28.813C23.997 28.813 24.4485 29.2645 24.4485 29.8163V37.3415C24.4485 37.8933 23.997 38.3448 23.4451 38.3448Z" fill="black"/>
</svg>
