<svg width="61" height="31" viewBox="0 0 61 31" fill="none" xmlns="http://www.w3.org/2000/svg">
<path d="M15.9851 30.2773C15.6427 30.2773 15.2775 30.1404 15.0264 29.8664L0.485474 15.3255L14.7981 1.01291C15.3231 0.487885 16.1905 0.487885 16.7384 1.01291C17.2862 1.53793 17.2634 2.40536 16.7384 2.95322L4.36612 15.3255L16.9667 27.9261C17.4917 28.4511 17.4917 29.3186 16.9667 29.8664C16.6928 30.1404 16.3503 30.2773 16.0079 30.2773H15.9851Z" fill="black"/>
<path d="M45.706 30.2776C45.3636 30.2776 44.9983 30.1407 44.7472 29.8667C44.2222 29.3417 44.2222 28.4743 44.7472 27.9264L57.1196 15.5541L44.519 2.95352C43.994 2.4285 43.994 1.56107 44.519 1.01321C45.044 0.465362 45.9114 0.488189 46.4593 1.01321L61.0002 15.5541L46.6875 29.8667C46.4136 30.1407 46.0713 30.2776 45.7288 30.2776H45.706Z" fill="black"/>
</svg>
