<svg width="57" height="47" viewBox="0 0 57 47" fill="none" xmlns="http://www.w3.org/2000/svg">
<path d="M53.8615 46.6645C53.2682 46.6645 52.7006 46.4323 52.2621 45.9938L49.3472 43.0788C46.6129 40.3445 42.9757 38.8226 39.1063 38.8226H5.00437C2.24423 38.8226 0 36.5783 0 33.8182V5.00438C0 2.24423 2.24423 0 5.00437 0H51.1529C53.913 0 56.1573 2.24423 56.1573 5.00438V44.3945C56.1573 45.3231 55.6156 46.1486 54.7643 46.4839C54.4806 46.5871 54.1968 46.6645 53.8873 46.6645H53.8615ZM4.97857 3.09552C3.92095 3.09552 3.06969 3.94675 3.06969 5.00438V33.8182C3.06969 34.8758 3.92095 35.7271 4.97857 35.7271H39.0805C43.7753 35.7271 48.1864 37.5586 51.514 40.8863L53.0102 42.3824V5.00438C53.0102 3.94675 52.1589 3.09552 51.1013 3.09552H4.97857Z" fill="black"/>
<path d="M16.5867 20.5076V25.383C16.5867 26.5438 17.051 27.1112 18.0054 27.1112H18.6761V28.8654H16.7156C15.2195 28.8654 14.4456 28.0399 14.4456 26.3116V20.9719C14.4456 20.2238 14.1619 19.8627 13.5944 19.8627H12.9495V17.8764H13.5944C14.1619 17.8764 14.4456 17.4895 14.4456 16.7414V11.4017C14.4456 9.72497 15.2195 8.8479 16.7156 8.8479H18.6761V10.602H18.0054C17.0768 10.602 16.5867 11.1695 16.5867 12.3303V17.3347C16.5867 18.0312 16.5093 18.5987 15.8386 18.9082C16.5093 19.192 16.5867 19.8111 16.5867 20.4302V20.5076Z" fill="black"/>
<path d="M22.5197 24.9446C23.6805 24.9446 24.0159 25.7442 24.0159 26.2344C24.0159 26.7245 23.6805 27.5499 22.5197 27.5499C21.3589 27.5499 21.0236 26.7245 21.0236 26.2344C21.0236 25.7442 21.3589 24.9446 22.5197 24.9446Z" fill="black"/>
<path d="M28.0401 24.9446C29.2009 24.9446 29.5362 25.7442 29.5362 26.2344C29.5362 26.7245 29.2009 27.5499 28.0401 27.5499C26.8793 27.5499 26.5439 26.7245 26.5439 26.2344C26.5439 25.7442 26.8793 24.9446 28.0401 24.9446Z" fill="black"/>
<path d="M33.5602 24.9446C34.721 24.9446 35.0564 25.7442 35.0564 26.2344C35.0564 26.7245 34.721 27.5499 33.5602 27.5499C32.3994 27.5499 32.0641 26.7245 32.0641 26.2344C32.0641 25.7442 32.3994 24.9446 33.5602 24.9446Z" fill="black"/>
<path d="M37.4294 27.0857H38.1001C39.0288 27.0857 39.5189 26.5182 39.5189 25.3574V20.5078C39.5189 19.8113 39.5963 19.2696 40.267 18.9601C39.5963 18.6505 39.5189 18.1088 39.5189 17.3865V12.408C39.5189 11.2472 39.0546 10.6796 38.1001 10.6796H37.4294V8.92554H39.3899C40.9119 8.92554 41.6599 9.77681 41.6599 11.4793V16.7932C41.6599 17.5671 41.9437 17.9283 42.5112 17.9283H43.1561V19.9145H42.5112C41.9437 19.9145 41.6599 20.2757 41.6599 21.0237V26.3634C41.6599 28.0659 40.9119 28.9172 39.3899 28.9172H37.4294V27.1631V27.0857Z" fill="black"/>
</svg>
