<svg width="63" height="47" viewBox="0 0 63 47" fill="none" xmlns="http://www.w3.org/2000/svg">
<path d="M38.313 34.4156H9.75489C7.84038 34.4156 6.29053 32.8658 6.29053 30.9513V3.46435C6.29053 1.54984 7.84038 0 9.75489 0H53.5379C55.4524 0 57.0023 1.54984 57.0023 3.46435V10.8489H54.2673V3.46435C54.2673 3.0541 53.9482 2.73502 53.5379 2.73502H9.75489C9.34464 2.73502 9.02554 3.0541 9.02554 3.46435V30.9513C9.02554 31.3615 9.34464 31.6806 9.75489 31.6806H38.313V34.4156Z" fill="#010101"/>
<path d="M38.313 46.8828H3.07687C1.39028 46.86 0 45.4697 0 43.7832V40.1365C0 38.4499 1.39028 37.0596 3.07687 37.0596H38.313V39.7946H3.07687C2.89454 39.7946 2.73501 39.9541 2.73501 40.1365V43.7832C2.73501 43.9655 2.89454 44.125 3.07687 44.125H38.313V46.8828Z" fill="#010101"/>
<path d="M59.1674 46.8832H44.4439C42.5522 46.8832 41.0251 45.3561 41.0251 43.4644V16.7752C41.0251 14.8835 42.5522 13.3564 44.4439 13.3564H59.1674C61.0591 13.3564 62.5862 14.8835 62.5862 16.7752V43.4644C62.5862 45.3561 61.0591 46.8832 59.1674 46.8832ZM44.4439 16.1143C44.0792 16.1143 43.7602 16.4105 43.7602 16.798V43.4872C43.7602 43.8519 44.0565 44.171 44.4439 44.171H59.1674C59.5321 44.171 59.8512 43.8747 59.8512 43.4872V16.798C59.8512 16.4333 59.5549 16.1143 59.1674 16.1143H44.4439Z" fill="#010101"/>
<path d="M57.3669 3.46436H53.9481V10.8489H57.3669V3.46436Z" fill="#010101"/>
<path d="M51.8057 41.2764C52.5861 41.2764 53.2187 40.6437 53.2187 39.8633C53.2187 39.0829 52.5861 38.4502 51.8057 38.4502C51.0252 38.4502 50.3926 39.0829 50.3926 39.8633C50.3926 40.6437 51.0252 41.2764 51.8057 41.2764Z" fill="#010101"/>
</svg>
