<svg width="37" height="61" viewBox="0 0 37 61" fill="none" xmlns="http://www.w3.org/2000/svg">
<path d="M32.7029 60.9172H4.04637C1.81311 60.9172 0 59.104 0 56.8708V4.04641C0 1.81315 1.81311 0 4.04637 0H32.7029C34.9362 0 36.7493 1.81315 36.7493 4.04641V56.8708C36.7493 59.104 34.9362 60.9172 32.7029 60.9172ZM4.04637 2.63127C3.27247 2.63127 2.65341 3.25039 2.65341 4.02429V56.8486C2.65341 57.6225 3.27247 58.2417 4.04637 58.2417H32.7029C33.4768 58.2417 34.096 57.6225 34.096 56.8486V4.02429C34.096 3.25039 33.4768 2.63127 32.7029 2.63127H4.04637Z" fill="black"/>
<path d="M30.8234 49.1977H5.90381V5.81494H30.8234V49.1977ZM8.55715 46.5443H28.17V8.46833H8.55715V46.5443Z" fill="black"/>
<path d="M21.5807 52.2056H15.1462V55.456H21.5807V52.2056Z" fill="black"/>
</svg>
