<svg width="54" height="60" viewBox="0 0 54 60" fill="none" xmlns="http://www.w3.org/2000/svg">
<path d="M3.87392 14.4694L1.38208 14.1972C1.77994 10.6374 3.39228 7.26611 5.94694 4.69052C8.94132 1.67519 12.9408 0 17.2125 0C20.6467 0 23.8714 1.047 26.5935 3.05722C29.3157 1.047 32.5404 0 35.9746 0C40.2253 0 44.2248 1.65425 47.2402 4.64863C49.8577 7.28705 51.4281 10.5746 51.805 14.1762L49.3132 14.4485C48.9782 11.4122 47.659 8.6272 45.4603 6.42853C42.9266 3.89481 39.5343 2.5128 35.9746 2.5128C32.7917 2.5128 29.8392 3.58072 27.3892 5.61188L26.5935 6.28193L25.7978 5.61188C23.3688 3.58072 20.3954 2.5128 17.2125 2.5128C13.6318 2.5128 10.2605 3.91574 7.74773 6.44946C5.59093 8.62719 4.22985 11.4541 3.89481 14.4485L3.87392 14.4694Z" fill="black"/>
<path d="M20.7304 34.9481C20.4163 34.9481 20.0813 34.8225 19.8509 34.5712L9.21355 23.9129C7.07769 21.7979 5.90503 18.9711 5.90503 15.9558C5.90503 12.9195 7.07771 10.0717 9.23451 7.93583C11.3704 5.79997 14.2181 4.60641 17.2335 4.60641C20.2488 4.60641 23.1385 5.82091 25.2325 7.93583L26.5935 9.2969L27.9756 7.91487C30.1114 5.77901 32.9593 4.58545 35.9955 4.58545C39.0109 4.58545 41.8587 5.77901 43.9736 7.91487C48.3919 12.3332 48.3919 19.5155 43.9736 23.9338L33.3153 34.5712C32.8127 35.0528 32.017 35.0528 31.5354 34.5712C31.0537 34.0896 31.0537 33.2939 31.5354 32.7913L42.1937 22.1539C45.6278 18.7198 45.6278 13.1289 42.1937 9.69476C40.5395 8.04052 38.3408 7.11918 35.9746 7.11918C33.6293 7.11918 31.4097 8.04052 29.7345 9.69476L26.5935 12.8357L23.4526 9.69476C21.8193 8.04052 19.5578 7.09822 17.2335 7.09822C14.9091 7.09822 12.6686 8.01959 10.9934 9.67383C9.31826 11.349 8.39689 13.5686 8.41783 15.9139C8.41783 18.2591 9.3392 20.4578 10.9934 22.1121L21.6308 32.7704C22.1124 33.252 22.1124 34.0477 21.6308 34.5503C21.3795 34.8015 21.0655 34.9272 20.7514 34.9272L20.7304 34.9481Z" fill="black"/>
<path d="M32.2473 51.2188H20.9607V49.9624C20.9607 46.1095 15.4955 43.9946 15.4536 43.9736L14.1134 43.4711L26.5935 20.0186L39.0736 43.4711L37.7335 43.9736C37.7335 43.9736 32.2473 46.1095 32.2473 49.9624V51.2188ZM23.3479 48.706H29.8392C30.4883 45.2929 33.713 43.1779 35.5557 42.2147L26.5935 25.3791L17.6313 42.2147C19.474 43.1779 22.6987 45.2929 23.3479 48.706Z" fill="black"/>
<path d="M34.0061 51.2188H19.1598C18.4688 51.2188 17.9034 50.6534 17.9034 49.9624C17.9034 49.2714 18.4688 48.7061 19.1598 48.7061H34.0061C34.6971 48.7061 35.2625 49.2714 35.2625 49.9624C35.2625 50.6534 34.6971 51.2188 34.0061 51.2188Z" fill="black"/>
<path d="M32.2682 59.0293H20.9188V49.9415C20.9188 49.2504 21.4842 48.6851 22.1752 48.6851C22.8662 48.6851 23.4316 49.2504 23.4316 49.9415V56.5165H29.7554V49.9415C29.7554 49.2504 30.3208 48.6851 31.0118 48.6851C31.7028 48.6851 32.2682 49.2504 32.2682 49.9415V59.0293Z" fill="black"/>
<path d="M5.08835 18.5732H0V13.4849H5.08835V18.5732ZM1.67516 16.8981H3.41319V15.1601H1.67516V16.8981Z" fill="black"/>
<path d="M53.187 18.5732H48.0986V13.4849H53.187V18.5732ZM49.7738 16.8981H51.5118V15.1601H49.7738V16.8981Z" fill="black"/>
<path d="M27.8289 22.6987H25.3162V36.9587H27.8289V22.6987Z" fill="black"/>
<path d="M26.5934 43.3666C24.4785 43.3666 22.7615 41.6495 22.7615 39.5346C22.7615 37.4197 24.4785 35.7026 26.5934 35.7026C28.7083 35.7026 30.4254 37.4197 30.4254 39.5346C30.4254 41.6495 28.7083 43.3666 26.5934 43.3666ZM26.5934 38.2154C25.8605 38.2154 25.2742 38.8017 25.2742 39.5346C25.2742 40.2675 25.8605 40.8538 26.5934 40.8538C27.3263 40.8538 27.9126 40.2675 27.9126 39.5346C27.9126 38.8017 27.3263 38.2154 26.5934 38.2154Z" fill="black"/>
</svg>
