<svg width="41" height="40" viewBox="0 0 41 40" fill="none" xmlns="http://www.w3.org/2000/svg">
<g clip-path="url(#clip0_71_1135)">
<path d="M32.007 2.5H22.4031C22.1046 2.49978 21.8181 2.61775 21.6063 2.82813L2.40625 22.0234C1.98595 22.4458 1.75 23.0174 1.75 23.6133C1.75 24.2091 1.98595 24.7808 2.40625 25.2031L11.5469 34.3438C11.9694 34.7641 12.5411 35.0001 13.1371 35.0001C13.7331 35.0001 14.3048 34.7641 14.7273 34.3438L33.9219 15.1563C34.1323 14.9444 34.2502 14.6579 34.25 14.3594V4.75C34.2514 4.45472 34.1945 4.16206 34.0823 3.88889C33.9702 3.61571 33.8052 3.36741 33.5967 3.15829C33.3882 2.94916 33.1404 2.78333 32.8676 2.67036C32.5948 2.55738 32.3023 2.49948 32.007 2.5Z" stroke="#010101" stroke-width="2.5" stroke-linecap="round" stroke-linejoin="round"/>
<path d="M28 11.25C27.5055 11.25 27.0222 11.1034 26.6111 10.8287C26.2 10.554 25.8795 10.1635 25.6903 9.70671C25.5011 9.2499 25.4516 8.74723 25.548 8.26228C25.6445 7.77732 25.8826 7.33187 26.2322 6.98223C26.5819 6.6326 27.0273 6.3945 27.5123 6.29804C27.9972 6.20157 28.4999 6.25108 28.9567 6.4403C29.4135 6.62952 29.804 6.94995 30.0787 7.36108C30.3534 7.7722 30.5 8.25555 30.5 8.75C30.5 9.41304 30.2366 10.0489 29.7678 10.5178C29.2989 10.9866 28.663 11.25 28 11.25Z" fill="#010101"/>
<path d="M18.4688 37.5L38.9375 17.0312C39.0393 16.9286 39.1194 16.8066 39.1731 16.6724C39.2268 16.5382 39.2529 16.3945 39.25 16.25V6.25" stroke="#010101" stroke-width="2.5" stroke-linecap="round" stroke-linejoin="round"/>
</g>
<defs>
<clipPath id="clip0_71_1135">
<rect width="40" height="40" fill="white" transform="translate(0.5)"/>
</clipPath>
</defs>
</svg>
