<svg width="41" height="41" viewBox="0 0 41 41" fill="none" xmlns="http://www.w3.org/2000/svg">
<path d="M34.7917 24.5833H6.20833C3.95317 24.5833 2.125 26.4114 2.125 28.6666V34.7916C2.125 37.0467 3.95317 38.8749 6.20833 38.8749H34.7917C37.0468 38.8749 38.875 37.0467 38.875 34.7916V28.6666C38.875 26.4114 37.0468 24.5833 34.7917 24.5833Z" stroke="black" stroke-width="3.33333"/>
<path d="M16.4167 3.14575H6.20833C5.12537 3.14575 4.08675 3.57596 3.32098 4.34173C2.55521 5.10751 2.125 6.14612 2.125 7.22909V13.3541C2.125 14.4371 2.55521 15.4757 3.32098 16.2414C4.08675 17.0072 5.12537 17.4374 6.20833 17.4374H16.4167" stroke="black" stroke-width="3.33333" stroke-linecap="round"/>
<path d="M30.7083 18.4583C35.2186 18.4583 38.875 14.802 38.875 10.2917C38.875 5.78134 35.2186 2.125 30.7083 2.125C26.198 2.125 22.5416 5.78134 22.5416 10.2917C22.5416 14.802 26.198 18.4583 30.7083 18.4583Z" stroke="black" stroke-width="3.33333"/>
<path d="M30.7084 13.3542C32.3997 13.3542 33.7709 11.9831 33.7709 10.2917C33.7709 8.60038 32.3997 7.22925 30.7084 7.22925C29.017 7.22925 27.6459 8.60038 27.6459 10.2917C27.6459 11.9831 29.017 13.3542 30.7084 13.3542Z" fill="black"/>
</svg>
