<svg width="40" height="40" viewBox="0 0 40 40" fill="none" xmlns="http://www.w3.org/2000/svg">
<g id="carbon:search">
<path id="Vector" d="M36.25 34.4823L26.81 25.0423C29.0785 22.3189 30.2097 18.8258 29.9684 15.2897C29.727 11.7535 28.1316 8.44652 25.5141 6.05667C22.8966 3.66683 19.4584 2.37812 15.915 2.45864C12.3715 2.53915 8.99546 3.98269 6.4892 6.48895C3.98293 8.99522 2.53939 12.3712 2.45888 15.9147C2.37837 19.4582 3.66707 22.8963 6.05692 25.5138C8.44676 28.1313 11.7537 29.7267 15.2899 29.9681C18.8261 30.2095 22.3192 29.0783 25.0425 26.8098L34.4825 36.2498L36.25 34.4823ZM5.00002 16.2498C5.00002 14.0247 5.65982 11.8497 6.89599 9.99961C8.13216 8.14956 9.88917 6.70762 11.9448 5.85613C14.0005 5.00465 16.2625 4.78186 18.4448 5.21594C20.6271 5.65003 22.6316 6.72149 24.205 8.29483C25.7783 9.86817 26.8498 11.8727 27.2839 14.055C27.7179 16.2373 27.4952 18.4993 26.6437 20.555C25.7922 22.6106 24.3502 24.3676 22.5002 25.6038C20.6501 26.84 18.4751 27.4998 16.25 27.4998C13.2674 27.4965 10.4078 26.3101 8.29873 24.2011C6.18966 22.092 5.00333 19.2324 5.00002 16.2498Z" fill="white" fill-opacity="0.8"/>
</g>
</svg>
